<mxfile host="app.diagrams.net" modified="2023-07-18T20:31:29.449Z" agent="Mozilla/5.0 (Windows NT 10.0; Win64; x64) AppleWebKit/537.36 (KHTML, like Gecko) Chrome/114.0.0.0 Safari/537.36" version="21.3.6" etag="hVEA6PBypUHcN3I459f8" type="github">
  <diagram name="Strona-1" id="Wl3W5kQO6a2969CGZjCZ">
    <mxGraphModel>
      <root>
        <mxCell id="0" />
        <mxCell id="1" parent="0" />
      </root>
    </mxGraphModel>
  </diagram>
</mxfile>
